<?xml version="1.0" encoding="UTF-8" ?>
<svg version="1.1" width="40" height="28" xmlns="http://www.w3.org/2000/svg" shape-rendering="crispEdges">
<rect x="28" y="1" width="1" height="1" fill="#9E9490" />
<rect x="29" y="1" width="1" height="1" fill="#9E9490" />
<rect x="30" y="1" width="1" height="1" fill="#9E9490" />
<rect x="31" y="1" width="1" height="1" fill="#9E9490" />
<rect x="32" y="1" width="1" height="1" fill="#9E9490" />
<rect x="33" y="1" width="1" height="1" fill="#9E9490" />
<rect x="4" y="2" width="1" height="1" fill="#9E9490" />
<rect x="5" y="2" width="1" height="1" fill="#9E9490" />
<rect x="6" y="2" width="1" height="1" fill="#9E9490" />
<rect x="7" y="2" width="1" height="1" fill="#9E9490" />
<rect x="8" y="2" width="1" height="1" fill="#9E9490" />
<rect x="9" y="2" width="1" height="1" fill="#9E9490" />
<rect x="27" y="2" width="1" height="1" fill="#9E9490" />
<rect x="28" y="2" width="1" height="1" fill="#CEC9C7" />
<rect x="29" y="2" width="1" height="1" fill="#CEC9C7" />
<rect x="30" y="2" width="1" height="1" fill="#CEC9C7" />
<rect x="31" y="2" width="1" height="1" fill="#CEC9C7" />
<rect x="32" y="2" width="1" height="1" fill="#CEC9C7" />
<rect x="33" y="2" width="1" height="1" fill="#CEC9C7" />
<rect x="34" y="2" width="1" height="1" fill="#9E9490" />
<rect x="3" y="3" width="1" height="1" fill="#9E9490" />
<rect x="4" y="3" width="1" height="1" fill="#CEC9C7" />
<rect x="5" y="3" width="1" height="1" fill="#CEC9C7" />
<rect x="6" y="3" width="1" height="1" fill="#CEC9C7" />
<rect x="7" y="3" width="1" height="1" fill="#CEC9C7" />
<rect x="8" y="3" width="1" height="1" fill="#CEC9C7" />
<rect x="9" y="3" width="1" height="1" fill="#CEC9C7" />
<rect x="10" y="3" width="1" height="1" fill="#9E9490" />
<rect x="26" y="3" width="1" height="1" fill="#9E9490" />
<rect x="27" y="3" width="1" height="1" fill="#CEC9C7" />
<rect x="28" y="3" width="1" height="1" fill="#CEC9C7" />
<rect x="29" y="3" width="1" height="1" fill="#CEC9C7" />
<rect x="30" y="3" width="1" height="1" fill="#CEC9C7" />
<rect x="31" y="3" width="1" height="1" fill="#CEC9C7" />
<rect x="32" y="3" width="1" height="1" fill="#CEC9C7" />
<rect x="33" y="3" width="1" height="1" fill="#CEC9C7" />
<rect x="34" y="3" width="1" height="1" fill="#CEC9C7" />
<rect x="35" y="3" width="1" height="1" fill="#9E9490" />
<rect x="2" y="4" width="1" height="1" fill="#9E9490" />
<rect x="3" y="4" width="1" height="1" fill="#CEC9C7" />
<rect x="4" y="4" width="1" height="1" fill="#CEC9C7" />
<rect x="5" y="4" width="1" height="1" fill="#CEC9C7" />
<rect x="6" y="4" width="1" height="1" fill="#CEC9C7" />
<rect x="7" y="4" width="1" height="1" fill="#CEC9C7" />
<rect x="8" y="4" width="1" height="1" fill="#CEC9C7" />
<rect x="9" y="4" width="1" height="1" fill="#CEC9C7" />
<rect x="10" y="4" width="1" height="1" fill="#CEC9C7" />
<rect x="11" y="4" width="1" height="1" fill="#9E9490" />
<rect x="26" y="4" width="1" height="1" fill="#9E9490" />
<rect x="27" y="4" width="1" height="1" fill="#CEC9C7" />
<rect x="28" y="4" width="1" height="1" fill="#CEC9C7" />
<rect x="29" y="4" width="1" height="1" fill="#CEC9C7" />
<rect x="30" y="4" width="1" height="1" fill="#9E9490" />
<rect x="31" y="4" width="1" height="1" fill="#9E9490" />
<rect x="32" y="4" width="1" height="1" fill="#9E9490" />
<rect x="33" y="4" width="1" height="1" fill="#9E9490" />
<rect x="34" y="4" width="1" height="1" fill="#9E9490" />
<rect x="35" y="4" width="1" height="1" fill="#9E9490" />
<rect x="2" y="5" width="1" height="1" fill="#9E9490" />
<rect x="3" y="5" width="1" height="1" fill="#CEC9C7" />
<rect x="4" y="5" width="1" height="1" fill="#CEC9C7" />
<rect x="5" y="5" width="1" height="1" fill="#CEC9C7" />
<rect x="6" y="5" width="1" height="1" fill="#9E9490" />
<rect x="7" y="5" width="1" height="1" fill="#9E9490" />
<rect x="8" y="5" width="1" height="1" fill="#9E9490" />
<rect x="9" y="5" width="1" height="1" fill="#9E9490" />
<rect x="10" y="5" width="1" height="1" fill="#9E9490" />
<rect x="11" y="5" width="1" height="1" fill="#9E9490" />
<rect x="25" y="5" width="1" height="1" fill="#9E9490" />
<rect x="26" y="5" width="1" height="1" fill="#CEC9C7" />
<rect x="27" y="5" width="1" height="1" fill="#CEC9C7" />
<rect x="28" y="5" width="1" height="1" fill="#CEC9C7" />
<rect x="29" y="5" width="1" height="1" fill="#9E9490" />
<rect x="30" y="5" width="1" height="1" fill="#CEC9C7" />
<rect x="31" y="5" width="1" height="1" fill="#CEC9C7" />
<rect x="32" y="5" width="1" height="1" fill="#CEC9C7" />
<rect x="33" y="5" width="1" height="1" fill="#CEC9C7" />
<rect x="34" y="5" width="1" height="1" fill="#CEC9C7" />
<rect x="35" y="5" width="1" height="1" fill="#CEC9C7" />
<rect x="36" y="5" width="1" height="1" fill="#9E9490" />
<rect x="1" y="6" width="1" height="1" fill="#9E9490" />
<rect x="2" y="6" width="1" height="1" fill="#CEC9C7" />
<rect x="3" y="6" width="1" height="1" fill="#CEC9C7" />
<rect x="4" y="6" width="1" height="1" fill="#CEC9C7" />
<rect x="5" y="6" width="1" height="1" fill="#9E9490" />
<rect x="6" y="6" width="1" height="1" fill="#CEC9C7" />
<rect x="7" y="6" width="1" height="1" fill="#CEC9C7" />
<rect x="8" y="6" width="1" height="1" fill="#CEC9C7" />
<rect x="9" y="6" width="1" height="1" fill="#CEC9C7" />
<rect x="10" y="6" width="1" height="1" fill="#CEC9C7" />
<rect x="11" y="6" width="1" height="1" fill="#CEC9C7" />
<rect x="12" y="6" width="1" height="1" fill="#9E9490" />
<rect x="25" y="6" width="1" height="1" fill="#9E9490" />
<rect x="26" y="6" width="1" height="1" fill="#CEC9C7" />
<rect x="27" y="6" width="1" height="1" fill="#CEC9C7" />
<rect x="28" y="6" width="1" height="1" fill="#9E9490" />
<rect x="29" y="6" width="1" height="1" fill="#CEC9C7" />
<rect x="30" y="6" width="1" height="1" fill="#9E9490" />
<rect x="31" y="6" width="1" height="1" fill="#9E9490" />
<rect x="32" y="6" width="1" height="1" fill="#9E9490" />
<rect x="33" y="6" width="1" height="1" fill="#9E9490" />
<rect x="34" y="6" width="1" height="1" fill="#9E9490" />
<rect x="35" y="6" width="1" height="1" fill="#9E9490" />
<rect x="1" y="7" width="1" height="1" fill="#9E9490" />
<rect x="2" y="7" width="1" height="1" fill="#CEC9C7" />
<rect x="3" y="7" width="1" height="1" fill="#CEC9C7" />
<rect x="4" y="7" width="1" height="1" fill="#9E9490" />
<rect x="5" y="7" width="1" height="1" fill="#CEC9C7" />
<rect x="6" y="7" width="1" height="1" fill="#9E9490" />
<rect x="7" y="7" width="1" height="1" fill="#9E9490" />
<rect x="8" y="7" width="1" height="1" fill="#9E9490" />
<rect x="9" y="7" width="1" height="1" fill="#9E9490" />
<rect x="10" y="7" width="1" height="1" fill="#9E9490" />
<rect x="11" y="7" width="1" height="1" fill="#9E9490" />
<rect x="25" y="7" width="1" height="1" fill="#FF706F" />
<rect x="26" y="7" width="1" height="1" fill="#9E9490" />
<rect x="27" y="7" width="1" height="1" fill="#9E9490" />
<rect x="28" y="7" width="1" height="1" fill="#9E9490" />
<rect x="29" y="7" width="1" height="1" fill="#9E9490" />
<rect x="30" y="7" width="1" height="1" fill="#FF706F" />
<rect x="31" y="7" width="1" height="1" fill="#FFFFFF" />
<rect x="32" y="7" width="1" height="1" fill="#000000" />
<rect x="33" y="7" width="1" height="1" fill="#FFD0C0" />
<rect x="34" y="7" width="1" height="1" fill="#000000" />
<rect x="35" y="7" width="1" height="1" fill="#FFFFFF" />
<rect x="1" y="8" width="1" height="1" fill="#FF706F" />
<rect x="2" y="8" width="1" height="1" fill="#9E9490" />
<rect x="3" y="8" width="1" height="1" fill="#9E9490" />
<rect x="4" y="8" width="1" height="1" fill="#9E9490" />
<rect x="5" y="8" width="1" height="1" fill="#9E9490" />
<rect x="6" y="8" width="1" height="1" fill="#FF706F" />
<rect x="7" y="8" width="1" height="1" fill="#FFFFFF" />
<rect x="8" y="8" width="1" height="1" fill="#000000" />
<rect x="9" y="8" width="1" height="1" fill="#FFD0C0" />
<rect x="10" y="8" width="1" height="1" fill="#000000" />
<rect x="11" y="8" width="1" height="1" fill="#FFFFFF" />
<rect x="24" y="8" width="1" height="1" fill="#FF706F" />
<rect x="25" y="8" width="1" height="1" fill="#FFD0C0" />
<rect x="26" y="8" width="1" height="1" fill="#FFD0C0" />
<rect x="27" y="8" width="1" height="1" fill="#4C3217" />
<rect x="28" y="8" width="1" height="1" fill="#4C3217" />
<rect x="29" y="8" width="1" height="1" fill="#FF706F" />
<rect x="30" y="8" width="1" height="1" fill="#FFD0C0" />
<rect x="31" y="8" width="1" height="1" fill="#FFFFFF" />
<rect x="32" y="8" width="1" height="1" fill="#000000" />
<rect x="33" y="8" width="1" height="1" fill="#FFD0C0" />
<rect x="34" y="8" width="1" height="1" fill="#000000" />
<rect x="35" y="8" width="1" height="1" fill="#FFFFFF" />
<rect x="36" y="8" width="1" height="1" fill="#8F581F" />
<rect x="0" y="9" width="1" height="1" fill="#FF706F" />
<rect x="1" y="9" width="1" height="1" fill="#FFD0C0" />
<rect x="2" y="9" width="1" height="1" fill="#FFD0C0" />
<rect x="3" y="9" width="1" height="1" fill="#4C3217" />
<rect x="4" y="9" width="1" height="1" fill="#4C3217" />
<rect x="5" y="9" width="1" height="1" fill="#FF706F" />
<rect x="6" y="9" width="1" height="1" fill="#FFD0C0" />
<rect x="7" y="9" width="1" height="1" fill="#FFFFFF" />
<rect x="8" y="9" width="1" height="1" fill="#000000" />
<rect x="9" y="9" width="1" height="1" fill="#FFD0C0" />
<rect x="10" y="9" width="1" height="1" fill="#000000" />
<rect x="11" y="9" width="1" height="1" fill="#FFFFFF" />
<rect x="12" y="9" width="1" height="1" fill="#8F581F" />
<rect x="24" y="9" width="1" height="1" fill="#FF706F" />
<rect x="25" y="9" width="1" height="1" fill="#FFD0C0" />
<rect x="26" y="9" width="1" height="1" fill="#FFD0C0" />
<rect x="27" y="9" width="1" height="1" fill="#4C3217" />
<rect x="28" y="9" width="1" height="1" fill="#4C3217" />
<rect x="29" y="9" width="1" height="1" fill="#FFD0C0" />
<rect x="30" y="9" width="1" height="1" fill="#FFD0C0" />
<rect x="31" y="9" width="1" height="1" fill="#FFD0C0" />
<rect x="32" y="9" width="1" height="1" fill="#FFD0C0" />
<rect x="33" y="9" width="1" height="1" fill="#FF706F" />
<rect x="34" y="9" width="1" height="1" fill="#FFD0C0" />
<rect x="35" y="9" width="1" height="1" fill="#FFD0C0" />
<rect x="36" y="9" width="1" height="1" fill="#8F581F" />
<rect x="0" y="10" width="1" height="1" fill="#FF706F" />
<rect x="1" y="10" width="1" height="1" fill="#FFD0C0" />
<rect x="2" y="10" width="1" height="1" fill="#FFD0C0" />
<rect x="3" y="10" width="1" height="1" fill="#4C3217" />
<rect x="4" y="10" width="1" height="1" fill="#4C3217" />
<rect x="5" y="10" width="1" height="1" fill="#FFD0C0" />
<rect x="6" y="10" width="1" height="1" fill="#FFD0C0" />
<rect x="7" y="10" width="1" height="1" fill="#FFD0C0" />
<rect x="8" y="10" width="1" height="1" fill="#FFD0C0" />
<rect x="9" y="10" width="1" height="1" fill="#FF706F" />
<rect x="10" y="10" width="1" height="1" fill="#FFD0C0" />
<rect x="11" y="10" width="1" height="1" fill="#FFD0C0" />
<rect x="12" y="10" width="1" height="1" fill="#8F581F" />
<rect x="25" y="10" width="1" height="1" fill="#FF706F" />
<rect x="26" y="10" width="1" height="1" fill="#4C3217" />
<rect x="27" y="10" width="1" height="1" fill="#4C3217" />
<rect x="28" y="10" width="1" height="1" fill="#4C3217" />
<rect x="29" y="10" width="1" height="1" fill="#4C3217" />
<rect x="30" y="10" width="1" height="1" fill="#FFD0C0" />
<rect x="31" y="10" width="1" height="1" fill="#FFD0C0" />
<rect x="32" y="10" width="1" height="1" fill="#FFD0C0" />
<rect x="33" y="10" width="1" height="1" fill="#FFD0C0" />
<rect x="34" y="10" width="1" height="1" fill="#FF706F" />
<rect x="35" y="10" width="1" height="1" fill="#FF706F" />
<rect x="36" y="10" width="1" height="1" fill="#8F581F" />
<rect x="1" y="11" width="1" height="1" fill="#FF706F" />
<rect x="2" y="11" width="1" height="1" fill="#4C3217" />
<rect x="3" y="11" width="1" height="1" fill="#4C3217" />
<rect x="4" y="11" width="1" height="1" fill="#4C3217" />
<rect x="5" y="11" width="1" height="1" fill="#4C3217" />
<rect x="6" y="11" width="1" height="1" fill="#FFD0C0" />
<rect x="7" y="11" width="1" height="1" fill="#FFD0C0" />
<rect x="8" y="11" width="1" height="1" fill="#FFD0C0" />
<rect x="9" y="11" width="1" height="1" fill="#FFD0C0" />
<rect x="10" y="11" width="1" height="1" fill="#FF706F" />
<rect x="11" y="11" width="1" height="1" fill="#FF706F" />
<rect x="12" y="11" width="1" height="1" fill="#8F581F" />
<rect x="26" y="11" width="1" height="1" fill="#4C3217" />
<rect x="27" y="11" width="1" height="1" fill="#4C3217" />
<rect x="28" y="11" width="1" height="1" fill="#4C3217" />
<rect x="29" y="11" width="1" height="1" fill="#4C3217" />
<rect x="30" y="11" width="1" height="1" fill="#4C3217" />
<rect x="31" y="11" width="1" height="1" fill="#4C3217" />
<rect x="32" y="11" width="1" height="1" fill="#4C3217" />
<rect x="33" y="11" width="1" height="1" fill="#4C3217" />
<rect x="34" y="11" width="1" height="1" fill="#4C3217" />
<rect x="35" y="11" width="1" height="1" fill="#4C3217" />
<rect x="2" y="12" width="1" height="1" fill="#4C3217" />
<rect x="3" y="12" width="1" height="1" fill="#4C3217" />
<rect x="4" y="12" width="1" height="1" fill="#4C3217" />
<rect x="5" y="12" width="1" height="1" fill="#4C3217" />
<rect x="6" y="12" width="1" height="1" fill="#4C3217" />
<rect x="7" y="12" width="1" height="1" fill="#4C3217" />
<rect x="8" y="12" width="1" height="1" fill="#4C3217" />
<rect x="9" y="12" width="1" height="1" fill="#4C3217" />
<rect x="10" y="12" width="1" height="1" fill="#4C3217" />
<rect x="11" y="12" width="1" height="1" fill="#4C3217" />
<rect x="27" y="12" width="1" height="1" fill="#4C3217" />
<rect x="28" y="12" width="1" height="1" fill="#4C3217" />
<rect x="29" y="12" width="1" height="1" fill="#4C3217" />
<rect x="30" y="12" width="1" height="1" fill="#4C3217" />
<rect x="31" y="12" width="1" height="1" fill="#4C3217" />
<rect x="32" y="12" width="1" height="1" fill="#4C3217" />
<rect x="33" y="12" width="1" height="1" fill="#FF706F" />
<rect x="34" y="12" width="1" height="1" fill="#4C3217" />
<rect x="35" y="12" width="1" height="1" fill="#4C3217" />
<rect x="3" y="13" width="1" height="1" fill="#4C3217" />
<rect x="4" y="13" width="1" height="1" fill="#4C3217" />
<rect x="5" y="13" width="1" height="1" fill="#4C3217" />
<rect x="6" y="13" width="1" height="1" fill="#4C3217" />
<rect x="7" y="13" width="1" height="1" fill="#4C3217" />
<rect x="8" y="13" width="1" height="1" fill="#4C3217" />
<rect x="9" y="13" width="1" height="1" fill="#FF706F" />
<rect x="10" y="13" width="1" height="1" fill="#4C3217" />
<rect x="11" y="13" width="1" height="1" fill="#4C3217" />
<rect x="28" y="13" width="1" height="1" fill="#20308F" />
<rect x="29" y="13" width="1" height="1" fill="#4C3217" />
<rect x="30" y="13" width="1" height="1" fill="#4C3217" />
<rect x="31" y="13" width="1" height="1" fill="#4C3217" />
<rect x="32" y="13" width="1" height="1" fill="#4C3217" />
<rect x="33" y="13" width="1" height="1" fill="#4C3217" />
<rect x="34" y="13" width="1" height="1" fill="#4C3217" />
<rect x="2" y="14" width="1" height="1" fill="#20308F" />
<rect x="3" y="14" width="1" height="1" fill="#20308F" />
<rect x="4" y="14" width="1" height="1" fill="#20308F" />
<rect x="5" y="14" width="1" height="1" fill="#20308F" />
<rect x="6" y="14" width="1" height="1" fill="#4C3217" />
<rect x="7" y="14" width="1" height="1" fill="#4C3217" />
<rect x="8" y="14" width="1" height="1" fill="#4C3217" />
<rect x="9" y="14" width="1" height="1" fill="#4C3217" />
<rect x="10" y="14" width="1" height="1" fill="#4C3217" />
<rect x="11" y="14" width="1" height="1" fill="#8F581F" />
<rect x="12" y="14" width="1" height="1" fill="#8F581F" />
<rect x="13" y="14" width="1" height="1" fill="#8F581F" />
<rect x="14" y="14" width="1" height="1" fill="#8F581F" />
<rect x="27" y="14" width="1" height="1" fill="#20308F" />
<rect x="28" y="14" width="1" height="1" fill="#80D8CF" />
<rect x="29" y="14" width="1" height="1" fill="#80D8CF" />
<rect x="30" y="14" width="1" height="1" fill="#80D8CF" />
<rect x="31" y="14" width="1" height="1" fill="#F372D5" />
<rect x="32" y="14" width="1" height="1" fill="#F372D5" />
<rect x="33" y="14" width="1" height="1" fill="#60B9B0" />
<rect x="34" y="14" width="1" height="1" fill="#20308F" />
<rect x="1" y="15" width="1" height="1" fill="#20308F" />
<rect x="2" y="15" width="1" height="1" fill="#60B9B0" />
<rect x="3" y="15" width="1" height="1" fill="#60B9B0" />
<rect x="4" y="15" width="1" height="1" fill="#60B9B0" />
<rect x="5" y="15" width="1" height="1" fill="#60B9B0" />
<rect x="6" y="15" width="1" height="1" fill="#F372D5" />
<rect x="7" y="15" width="1" height="1" fill="#F372D5" />
<rect x="8" y="15" width="1" height="1" fill="#F372D5" />
<rect x="9" y="15" width="1" height="1" fill="#8F581F" />
<rect x="10" y="15" width="1" height="1" fill="#8F581F" />
<rect x="11" y="15" width="1" height="1" fill="#8F581F" />
<rect x="12" y="15" width="1" height="1" fill="#FFD0C0" />
<rect x="13" y="15" width="1" height="1" fill="#8F581F" />
<rect x="14" y="15" width="1" height="1" fill="#FFD0C0" />
<rect x="15" y="15" width="1" height="1" fill="#8F581F" />
<rect x="26" y="15" width="1" height="1" fill="#20308F" />
<rect x="27" y="15" width="1" height="1" fill="#80D8CF" />
<rect x="28" y="15" width="1" height="1" fill="#80D8CF" />
<rect x="29" y="15" width="1" height="1" fill="#8F581F" />
<rect x="30" y="15" width="1" height="1" fill="#8F581F" />
<rect x="31" y="15" width="1" height="1" fill="#8F581F" />
<rect x="32" y="15" width="1" height="1" fill="#F386DA" />
<rect x="33" y="15" width="1" height="1" fill="#F386DA" />
<rect x="34" y="15" width="1" height="1" fill="#60B9B0" />
<rect x="35" y="15" width="1" height="1" fill="#20308F" />
<rect x="0" y="16" width="1" height="1" fill="#20308F" />
<rect x="1" y="16" width="1" height="1" fill="#60B9B0" />
<rect x="2" y="16" width="1" height="1" fill="#80D8CF" />
<rect x="3" y="16" width="1" height="1" fill="#80D8CF" />
<rect x="4" y="16" width="1" height="1" fill="#80D8CF" />
<rect x="5" y="16" width="1" height="1" fill="#80D8CF" />
<rect x="6" y="16" width="1" height="1" fill="#F372D5" />
<rect x="7" y="16" width="1" height="1" fill="#F386DA" />
<rect x="8" y="16" width="1" height="1" fill="#F386DA" />
<rect x="9" y="16" width="1" height="1" fill="#80D8CF" />
<rect x="10" y="16" width="1" height="1" fill="#20308F" />
<rect x="11" y="16" width="1" height="1" fill="#FFD0C0" />
<rect x="12" y="16" width="1" height="1" fill="#8F581F" />
<rect x="13" y="16" width="1" height="1" fill="#FFD0C0" />
<rect x="14" y="16" width="1" height="1" fill="#FFD0C0" />
<rect x="15" y="16" width="1" height="1" fill="#8F581F" />
<rect x="25" y="16" width="1" height="1" fill="#20308F" />
<rect x="26" y="16" width="1" height="1" fill="#80D8CF" />
<rect x="27" y="16" width="1" height="1" fill="#80D8CF" />
<rect x="28" y="16" width="1" height="1" fill="#8F581F" />
<rect x="29" y="16" width="1" height="1" fill="#FFD0C0" />
<rect x="30" y="16" width="1" height="1" fill="#FFD0C0" />
<rect x="31" y="16" width="1" height="1" fill="#8F581F" />
<rect x="32" y="16" width="1" height="1" fill="#8F581F" />
<rect x="33" y="16" width="1" height="1" fill="#F386DA" />
<rect x="34" y="16" width="1" height="1" fill="#80D8CF" />
<rect x="35" y="16" width="1" height="1" fill="#60B9B0" />
<rect x="36" y="16" width="1" height="1" fill="#8F581F" />
<rect x="37" y="16" width="1" height="1" fill="#8F581F" />
<rect x="0" y="17" width="1" height="1" fill="#20308F" />
<rect x="1" y="17" width="1" height="1" fill="#60B9B0" />
<rect x="2" y="17" width="1" height="1" fill="#8F581F" />
<rect x="3" y="17" width="1" height="1" fill="#8F581F" />
<rect x="4" y="17" width="1" height="1" fill="#8F581F" />
<rect x="5" y="17" width="1" height="1" fill="#80D8CF" />
<rect x="6" y="17" width="1" height="1" fill="#80D8CF" />
<rect x="7" y="17" width="1" height="1" fill="#F386DA" />
<rect x="8" y="17" width="1" height="1" fill="#F386DA" />
<rect x="9" y="17" width="1" height="1" fill="#80D8CF" />
<rect x="10" y="17" width="1" height="1" fill="#80D8CF" />
<rect x="11" y="17" width="1" height="1" fill="#20308F" />
<rect x="12" y="17" width="1" height="1" fill="#8F581F" />
<rect x="13" y="17" width="1" height="1" fill="#FFD0C0" />
<rect x="14" y="17" width="1" height="1" fill="#FFD0C0" />
<rect x="15" y="17" width="1" height="1" fill="#8F581F" />
<rect x="25" y="17" width="1" height="1" fill="#20308F" />
<rect x="26" y="17" width="1" height="1" fill="#60B9B0" />
<rect x="27" y="17" width="1" height="1" fill="#8F581F" />
<rect x="28" y="17" width="1" height="1" fill="#FFD0C0" />
<rect x="29" y="17" width="1" height="1" fill="#FFD0C0" />
<rect x="30" y="17" width="1" height="1" fill="#FFD0C0" />
<rect x="31" y="17" width="1" height="1" fill="#FFD0C0" />
<rect x="32" y="17" width="1" height="1" fill="#FFD0C0" />
<rect x="33" y="17" width="1" height="1" fill="#8F581F" />
<rect x="34" y="17" width="1" height="1" fill="#80D8CF" />
<rect x="35" y="17" width="1" height="1" fill="#80D8CF" />
<rect x="36" y="17" width="1" height="1" fill="#80D8CF" />
<rect x="37" y="17" width="1" height="1" fill="#FFD0C0" />
<rect x="38" y="17" width="1" height="1" fill="#8F581F" />
<rect x="0" y="18" width="1" height="1" fill="#20308F" />
<rect x="1" y="18" width="1" height="1" fill="#8F581F" />
<rect x="2" y="18" width="1" height="1" fill="#FFD0C0" />
<rect x="3" y="18" width="1" height="1" fill="#FFD0C0" />
<rect x="4" y="18" width="1" height="1" fill="#8F581F" />
<rect x="5" y="18" width="1" height="1" fill="#8F581F" />
<rect x="6" y="18" width="1" height="1" fill="#80D8CF" />
<rect x="7" y="18" width="1" height="1" fill="#F386DA" />
<rect x="8" y="18" width="1" height="1" fill="#F386DA" />
<rect x="9" y="18" width="1" height="1" fill="#80D8CF" />
<rect x="10" y="18" width="1" height="1" fill="#80D8CF" />
<rect x="11" y="18" width="1" height="1" fill="#20308F" />
<rect x="12" y="18" width="1" height="1" fill="#2A2929" />
<rect x="13" y="18" width="1" height="1" fill="#8F581F" />
<rect x="14" y="18" width="1" height="1" fill="#8F581F" />
<rect x="25" y="18" width="1" height="1" fill="#20308F" />
<rect x="26" y="18" width="1" height="1" fill="#60B9B0" />
<rect x="27" y="18" width="1" height="1" fill="#8F581F" />
<rect x="28" y="18" width="1" height="1" fill="#FFD0C0" />
<rect x="29" y="18" width="1" height="1" fill="#FFD0C0" />
<rect x="30" y="18" width="1" height="1" fill="#FFD0C0" />
<rect x="31" y="18" width="1" height="1" fill="#FFD0C0" />
<rect x="32" y="18" width="1" height="1" fill="#FFD0C0" />
<rect x="33" y="18" width="1" height="1" fill="#8F581F" />
<rect x="34" y="18" width="1" height="1" fill="#F386DA" />
<rect x="35" y="18" width="1" height="1" fill="#80D8CF" />
<rect x="36" y="18" width="1" height="1" fill="#FFD0C0" />
<rect x="37" y="18" width="1" height="1" fill="#8F581F" />
<rect x="38" y="18" width="1" height="1" fill="#8F581F" />
<rect x="0" y="19" width="1" height="1" fill="#8F581F" />
<rect x="1" y="19" width="1" height="1" fill="#FFD0C0" />
<rect x="2" y="19" width="1" height="1" fill="#FFD0C0" />
<rect x="3" y="19" width="1" height="1" fill="#FFD0C0" />
<rect x="4" y="19" width="1" height="1" fill="#FFD0C0" />
<rect x="5" y="19" width="1" height="1" fill="#FFD0C0" />
<rect x="6" y="19" width="1" height="1" fill="#8F581F" />
<rect x="7" y="19" width="1" height="1" fill="#F386DA" />
<rect x="8" y="19" width="1" height="1" fill="#F386DA" />
<rect x="9" y="19" width="1" height="1" fill="#80D8CF" />
<rect x="10" y="19" width="1" height="1" fill="#80D8CF" />
<rect x="11" y="19" width="1" height="1" fill="#20308F" />
<rect x="12" y="19" width="1" height="1" fill="#343333" />
<rect x="13" y="19" width="1" height="1" fill="#000000" />
<rect x="26" y="19" width="1" height="1" fill="#20308F" />
<rect x="27" y="19" width="1" height="1" fill="#20308F" />
<rect x="28" y="19" width="1" height="1" fill="#8F581F" />
<rect x="29" y="19" width="1" height="1" fill="#FFD0C0" />
<rect x="30" y="19" width="1" height="1" fill="#FFD0C0" />
<rect x="31" y="19" width="1" height="1" fill="#FFD0C0" />
<rect x="32" y="19" width="1" height="1" fill="#8F581F" />
<rect x="33" y="19" width="1" height="1" fill="#F386DA" />
<rect x="34" y="19" width="1" height="1" fill="#F386DA" />
<rect x="35" y="19" width="1" height="1" fill="#80D8CF" />
<rect x="36" y="19" width="1" height="1" fill="#FFD0C0" />
<rect x="37" y="19" width="1" height="1" fill="#20308F" />
<rect x="0" y="20" width="1" height="1" fill="#8F581F" />
<rect x="1" y="20" width="1" height="1" fill="#FFD0C0" />
<rect x="2" y="20" width="1" height="1" fill="#FFD0C0" />
<rect x="3" y="20" width="1" height="1" fill="#FFD0C0" />
<rect x="4" y="20" width="1" height="1" fill="#FFD0C0" />
<rect x="5" y="20" width="1" height="1" fill="#FFD0C0" />
<rect x="6" y="20" width="1" height="1" fill="#8F581F" />
<rect x="7" y="20" width="1" height="1" fill="#F386DA" />
<rect x="8" y="20" width="1" height="1" fill="#F386DA" />
<rect x="9" y="20" width="1" height="1" fill="#80D8CF" />
<rect x="10" y="20" width="1" height="1" fill="#343333" />
<rect x="11" y="20" width="1" height="1" fill="#343333" />
<rect x="12" y="20" width="1" height="1" fill="#000000" />
<rect x="13" y="20" width="1" height="1" fill="#AAAAA4" />
<rect x="14" y="20" width="1" height="1" fill="#AAAAA4" />
<rect x="15" y="20" width="1" height="1" fill="#AAAAA4" />
<rect x="26" y="20" width="1" height="1" fill="#000000" />
<rect x="27" y="20" width="1" height="1" fill="#2A2929" />
<rect x="28" y="20" width="1" height="1" fill="#2A2929" />
<rect x="29" y="20" width="1" height="1" fill="#8F581F" />
<rect x="30" y="20" width="1" height="1" fill="#8F581F" />
<rect x="31" y="20" width="1" height="1" fill="#8F581F" />
<rect x="33" y="20" width="1" height="1" fill="#F386DA" />
<rect x="34" y="20" width="1" height="1" fill="#F386DA" />
<rect x="35" y="20" width="1" height="1" fill="#80D8CF" />
<rect x="36" y="20" width="1" height="1" fill="#80D8CF" />
<rect x="37" y="20" width="1" height="1" fill="#20308F" />
<rect x="1" y="21" width="1" height="1" fill="#8F581F" />
<rect x="2" y="21" width="1" height="1" fill="#FFD0C0" />
<rect x="3" y="21" width="1" height="1" fill="#FFD0C0" />
<rect x="4" y="21" width="1" height="1" fill="#FFD0C0" />
<rect x="5" y="21" width="1" height="1" fill="#8F581F" />
<rect x="6" y="21" width="1" height="1" fill="#2A2929" />
<rect x="7" y="21" width="1" height="1" fill="#343333" />
<rect x="8" y="21" width="1" height="1" fill="#343333" />
<rect x="9" y="21" width="1" height="1" fill="#343333" />
<rect x="10" y="21" width="1" height="1" fill="#343333" />
<rect x="11" y="21" width="1" height="1" fill="#000000" />
<rect x="12" y="21" width="1" height="1" fill="#FFFFEF" />
<rect x="13" y="21" width="1" height="1" fill="#C2C2BA" />
<rect x="14" y="21" width="1" height="1" fill="#FFFFEF" />
<rect x="15" y="21" width="1" height="1" fill="#AAAAA4" />
<rect x="27" y="21" width="1" height="1" fill="#000000" />
<rect x="28" y="21" width="1" height="1" fill="#2A2929" />
<rect x="29" y="21" width="1" height="1" fill="#2A2929" />
<rect x="30" y="21" width="1" height="1" fill="#343333" />
<rect x="31" y="21" width="1" height="1" fill="#343333" />
<rect x="32" y="21" width="1" height="1" fill="#343333" />
<rect x="33" y="21" width="1" height="1" fill="#343333" />
<rect x="34" y="21" width="1" height="1" fill="#343333" />
<rect x="35" y="21" width="1" height="1" fill="#343333" />
<rect x="36" y="21" width="1" height="1" fill="#2A2929" />
<rect x="37" y="21" width="1" height="1" fill="#000000" />
<rect x="1" y="22" width="1" height="1" fill="#AAAAA4" />
<rect x="2" y="22" width="1" height="1" fill="#8F581F" />
<rect x="3" y="22" width="1" height="1" fill="#8F581F" />
<rect x="4" y="22" width="1" height="1" fill="#8F581F" />
<rect x="5" y="22" width="1" height="1" fill="#2A2929" />
<rect x="6" y="22" width="1" height="1" fill="#2A2929" />
<rect x="7" y="22" width="1" height="1" fill="#343333" />
<rect x="8" y="22" width="1" height="1" fill="#343333" />
<rect x="9" y="22" width="1" height="1" fill="#343333" />
<rect x="10" y="22" width="1" height="1" fill="#000000" />
<rect x="11" y="22" width="1" height="1" fill="#FFFFEF" />
<rect x="12" y="22" width="1" height="1" fill="#FFFFEF" />
<rect x="13" y="22" width="1" height="1" fill="#FFFFEF" />
<rect x="14" y="22" width="1" height="1" fill="#AAAAA4" />
<rect x="15" y="22" width="1" height="1" fill="#AAAAA4" />
<rect x="26" y="22" width="1" height="1" fill="#000000" />
<rect x="27" y="22" width="1" height="1" fill="#000000" />
<rect x="28" y="22" width="1" height="1" fill="#2A2929" />
<rect x="29" y="22" width="1" height="1" fill="#2A2929" />
<rect x="30" y="22" width="1" height="1" fill="#2A2929" />
<rect x="31" y="22" width="1" height="1" fill="#343333" />
<rect x="32" y="22" width="1" height="1" fill="#2A2929" />
<rect x="33" y="22" width="1" height="1" fill="#2A2929" />
<rect x="34" y="22" width="1" height="1" fill="#343333" />
<rect x="35" y="22" width="1" height="1" fill="#343333" />
<rect x="36" y="22" width="1" height="1" fill="#2A2929" />
<rect x="37" y="22" width="1" height="1" fill="#000000" />
<rect x="38" y="22" width="1" height="1" fill="#AAAAA4" />
<rect x="0" y="23" width="1" height="1" fill="#AAAAA4" />
<rect x="1" y="23" width="1" height="1" fill="#FFFFEF" />
<rect x="2" y="23" width="1" height="1" fill="#FFFFEF" />
<rect x="3" y="23" width="1" height="1" fill="#000000" />
<rect x="4" y="23" width="1" height="1" fill="#000000" />
<rect x="5" y="23" width="1" height="1" fill="#2A2929" />
<rect x="6" y="23" width="1" height="1" fill="#2A2929" />
<rect x="7" y="23" width="1" height="1" fill="#2A2929" />
<rect x="8" y="23" width="1" height="1" fill="#2A2929" />
<rect x="9" y="23" width="1" height="1" fill="#2A2929" />
<rect x="10" y="23" width="1" height="1" fill="#000000" />
<rect x="11" y="23" width="1" height="1" fill="#FFFFEF" />
<rect x="12" y="23" width="1" height="1" fill="#FFFFEF" />
<rect x="13" y="23" width="1" height="1" fill="#FFFFEF" />
<rect x="14" y="23" width="1" height="1" fill="#AAAAA4" />
<rect x="15" y="23" width="1" height="1" fill="#AAAAA4" />
<rect x="25" y="23" width="1" height="1" fill="#AAAAA4" />
<rect x="26" y="23" width="1" height="1" fill="#FFFFEF" />
<rect x="27" y="23" width="1" height="1" fill="#000000" />
<rect x="28" y="23" width="1" height="1" fill="#000000" />
<rect x="29" y="23" width="1" height="1" fill="#000000" />
<rect x="30" y="23" width="1" height="1" fill="#2A2929" />
<rect x="31" y="23" width="1" height="1" fill="#2A2929" />
<rect x="32" y="23" width="1" height="1" fill="#000000" />
<rect x="33" y="23" width="1" height="1" fill="#000000" />
<rect x="34" y="23" width="1" height="1" fill="#2A2929" />
<rect x="35" y="23" width="1" height="1" fill="#2A2929" />
<rect x="36" y="23" width="1" height="1" fill="#000000" />
<rect x="37" y="23" width="1" height="1" fill="#C2C2BA" />
<rect x="38" y="23" width="1" height="1" fill="#FFFFEF" />
<rect x="39" y="23" width="1" height="1" fill="#AAAAA4" />
<rect x="0" y="24" width="1" height="1" fill="#AAAAA4" />
<rect x="1" y="24" width="1" height="1" fill="#FFFFEF" />
<rect x="2" y="24" width="1" height="1" fill="#FFFFEF" />
<rect x="3" y="24" width="1" height="1" fill="#000000" />
<rect x="4" y="24" width="1" height="1" fill="#000000" />
<rect x="5" y="24" width="1" height="1" fill="#000000" />
<rect x="6" y="24" width="1" height="1" fill="#000000" />
<rect x="7" y="24" width="1" height="1" fill="#000000" />
<rect x="8" y="24" width="1" height="1" fill="#000000" />
<rect x="9" y="24" width="1" height="1" fill="#000000" />
<rect x="10" y="24" width="1" height="1" fill="#000000" />
<rect x="11" y="24" width="1" height="1" fill="#FFFFEF" />
<rect x="12" y="24" width="1" height="1" fill="#FFFFEF" />
<rect x="13" y="24" width="1" height="1" fill="#AAAAA4" />
<rect x="14" y="24" width="1" height="1" fill="#AAAAA4" />
<rect x="25" y="24" width="1" height="1" fill="#AAAAA4" />
<rect x="26" y="24" width="1" height="1" fill="#FFFFEF" />
<rect x="27" y="24" width="1" height="1" fill="#FFFFEF" />
<rect x="28" y="24" width="1" height="1" fill="#000000" />
<rect x="29" y="24" width="1" height="1" fill="#000000" />
<rect x="30" y="24" width="1" height="1" fill="#000000" />
<rect x="31" y="24" width="1" height="1" fill="#000000" />
<rect x="32" y="24" width="1" height="1" fill="#000000" />
<rect x="34" y="24" width="1" height="1" fill="#000000" />
<rect x="35" y="24" width="1" height="1" fill="#FFFFEF" />
<rect x="36" y="24" width="1" height="1" fill="#FFFFEF" />
<rect x="37" y="24" width="1" height="1" fill="#FFFFEF" />
<rect x="38" y="24" width="1" height="1" fill="#AAAAA4" />
<rect x="39" y="24" width="1" height="1" fill="#AAAAA4" />
<rect x="0" y="25" width="1" height="1" fill="#AAAAA4" />
<rect x="1" y="25" width="1" height="1" fill="#FFFFEF" />
<rect x="2" y="25" width="1" height="1" fill="#C2C2BA" />
<rect x="3" y="25" width="1" height="1" fill="#FFFFEF" />
<rect x="4" y="25" width="1" height="1" fill="#FFFFEF" />
<rect x="5" y="25" width="1" height="1" fill="#000000" />
<rect x="6" y="25" width="1" height="1" fill="#000000" />
<rect x="11" y="25" width="1" height="1" fill="#AAAAA4" />
<rect x="12" y="25" width="1" height="1" fill="#AAAAA4" />
<rect x="13" y="25" width="1" height="1" fill="#AAAAA4" />
<rect x="14" y="25" width="1" height="1" fill="#AAAAA4" />
<rect x="25" y="25" width="1" height="1" fill="#AAAAA4" />
<rect x="26" y="25" width="1" height="1" fill="#FFFFEF" />
<rect x="27" y="25" width="1" height="1" fill="#FFFFEF" />
<rect x="28" y="25" width="1" height="1" fill="#C2C2BA" />
<rect x="29" y="25" width="1" height="1" fill="#FFFFEF" />
<rect x="30" y="25" width="1" height="1" fill="#AAAAA4" />
<rect x="34" y="25" width="1" height="1" fill="#AAAAA4" />
<rect x="35" y="25" width="1" height="1" fill="#FFFFEF" />
<rect x="36" y="25" width="1" height="1" fill="#AAAAA4" />
<rect x="37" y="25" width="1" height="1" fill="#AAAAA4" />
<rect x="38" y="25" width="1" height="1" fill="#AAAAA4" />
<rect x="39" y="25" width="1" height="1" fill="#AAAAA4" />
<rect x="0" y="26" width="1" height="1" fill="#AAAAA4" />
<rect x="1" y="26" width="1" height="1" fill="#FFFFEF" />
<rect x="2" y="26" width="1" height="1" fill="#FFFFEF" />
<rect x="3" y="26" width="1" height="1" fill="#AAAAA4" />
<rect x="4" y="26" width="1" height="1" fill="#AAAAA4" />
<rect x="12" y="26" width="1" height="1" fill="#AAAAA4" />
<rect x="13" y="26" width="1" height="1" fill="#AAAAA4" />
<rect x="26" y="26" width="1" height="1" fill="#AAAAA4" />
<rect x="27" y="26" width="1" height="1" fill="#FFFFEF" />
<rect x="28" y="26" width="1" height="1" fill="#FFFFEF" />
<rect x="29" y="26" width="1" height="1" fill="#FFFFEF" />
<rect x="30" y="26" width="1" height="1" fill="#AAAAA4" />
<rect x="31" y="26" width="1" height="1" fill="#C2C2BA" />
<rect x="34" y="26" width="1" height="1" fill="#AAAAA4" />
<rect x="35" y="26" width="1" height="1" fill="#AAAAA4" />
<rect x="36" y="26" width="1" height="1" fill="#AAAAA4" />
<rect x="37" y="26" width="1" height="1" fill="#AAAAA4" />
<rect x="38" y="26" width="1" height="1" fill="#AAAAA4" />
<rect x="1" y="27" width="1" height="1" fill="#AAAAA4" />
<rect x="2" y="27" width="1" height="1" fill="#AAAAA4" />
<rect x="27" y="27" width="1" height="1" fill="#AAAAA4" />
<rect x="28" y="27" width="1" height="1" fill="#AAAAA4" />
<rect x="29" y="27" width="1" height="1" fill="#AAAAA4" />
<rect x="30" y="27" width="1" height="1" fill="#AAAAA4" />
<rect x="31" y="27" width="1" height="1" fill="#C2C2BA" />
<rect x="35" y="27" width="1" height="1" fill="#AAAAA4" />
<rect x="36" y="27" width="1" height="1" fill="#AAAAA4" />
</svg>